<svg aria-hidden="true" style="display:none">
  <!-- icon-menu: Hamburger menu icon for navigation -->
  <symbol id="icon-menu" viewBox="0 0 24 24">
    <title>Menu</title>
    <path d="M3 6h18v2H3V6zm0 5h18v2H3v-2zm0 5h18v2H3v-2z"/>
  </symbol>

  <!-- icon-basket: Shopping basket/cart icon for basket drawer -->
  <symbol id="icon-basket" viewBox="0 0 24 24">
    <title>Basket</title>
    <path d="M7 4V2c0-1.1.9-2 2-2h6c1.1 0 2 .9 2 2v2h4c.6 0 1 .4 1 1s-.4 1-1 1h-1v13c0 1.1-.9 2-2 2H6c-1.1 0-2-.9-2-2V6H3c-.6 0-1-.4-1-1s.4-1 1-1h4zm2-2v2h6V2H9zm-1 4v13h8V6H8z"/>
  </symbol>

  <!-- icon-orders: List/document icon for orders screen -->
  <symbol id="icon-orders" viewBox="0 0 24 24">
    <title>Orders</title>
    <path d="M14 2H6c-1.1 0-2 .9-2 2v16c0 1.1.9 2 2 2h12c1.1 0 2-.9 2-2V8l-6-6zm4 18H6V4h7v5h5v11z"/>
    <path d="M8 12h8v2H8v-2zm0 4h8v2H8v-2z"/>
  </symbol>

  <!-- icon-star: Star icon for favorites -->
  <symbol id="icon-star" viewBox="0 0 24 24">
    <title>Star</title>
    <path d="M12 17.3l4.2 2.5-.9-4.8 3.7-3.6-5.1-.7-2.1-4.6-2.1 4.6-5.1.7 3.7 3.6-.9 4.8 4.2-2.5z"/>
  </symbol>

  <!-- icon-edit: Pencil icon for edit actions -->
  <symbol id="icon-edit" viewBox="0 0 24 24">
    <title>Edit</title>
    <path d="M3 17.3V21h3.7L17.1 10.6l-3.7-3.7L3 17.3zm14.7-9.3L19 5.3c.4-.4.4-1 0-1.4l-2.6-2.6c-.4-.4-1-.4-1.4 0l-1.2 1.2 3.7 3.7 1.2-1.2z"/>
  </symbol>

  <!-- icon-delete: Trash/delete icon for delete actions -->
  <symbol id="icon-delete" viewBox="0 0 24 24">
    <title>Delete</title>
    <path d="M6 19c0 1.1.9 2 2 2h8c1.1 0 2-.9 2-2V7H6v12zM19 4h-3.5l-1-1h-5l-1 1H5v2h14V4z"/>
  </symbol>

  <!-- icon-export: Download/export icon for export actions -->
  <symbol id="icon-export" viewBox="0 0 24 24">
    <title>Export</title>
    <path d="M19 9h-4V3H9v6H5l7 7 7-7zM5 18v2h14v-2H5z"/>
  </symbol>

  <!-- icon-import: Upload/import icon for import actions -->
  <symbol id="icon-import" viewBox="0 0 24 24">
    <title>Import</title>
    <path d="M19 9h-4V3H9v6H5l7 7 7-7zM5 18v2h14v-2H5z" transform="rotate(180 12 12)"/>
  </symbol>

  <!-- icon-settings: Gear/settings icon for settings -->
  <symbol id="icon-settings" viewBox="0 0 24 24">
    <title>Settings</title>
    <path d="M19.1 12.5c.1-.3.1-.6.1-1s0-.7-.1-1l2.1-1.6c.2-.1.2-.4.1-.6l-2-3.5c-.1-.2-.4-.3-.6-.2l-2.5 1c-.5-.4-1.1-.7-1.7-1l-.4-2.6c0-.2-.2-.4-.4-.4h-4c-.2 0-.4.2-.4.4l-.4 2.6c-.6.3-1.2.6-1.7 1l-2.5-1c-.2-.1-.5 0-.6.2l-2 3.5c-.1.2 0 .5.1.6l2.1 1.6c0 .3-.1.6-.1 1s0 .7.1 1l-2.1 1.6c-.2.1-.2.4-.1.6l2 3.5c.1.2.4.3.6.2l2.5-1c.5.4 1.1.7 1.7 1l.4 2.6c0 .2.2.4.4.4h4c.2 0 .4-.2.4-.4l.4-2.6c.6-.3 1.2-.6 1.7-1l2.5 1c.2.1.5 0 .6-.2l2-3.5c.1-.2 0-.5-.1-.6l-2.1-1.6zm-7.1 2.5c-1.7 0-3-1.3-3-3s1.3-3 3-3 3 1.3 3 3-1.3 3-3 3z"/>
  </symbol>

  <!-- icon-back: Arrow left icon for back navigation -->
  <symbol id="icon-back" viewBox="0 0 24 24">
    <title>Back</title>
    <path d="M20 11H7.8l5.6-5.6c.4-.4.4-1 0-1.4-.4-.4-1-.4-1.4 0l-7.8 7.8c-.4.4-.4 1 0 1.4l7.8 7.8c.2.2.5.3.7.3s.5-.1.7-.3c.4-.4.4-1 0-1.4L7.8 13H20c.6 0 1-.4 1-1s-.4-1-1-1z"/>
  </symbol>
</svg>

